:version	1.10
:name	0101
:units
	mass	kg
	length	m
	angle	deg
:documentation
	fps:30
:root
	axis	XYZ
	order	TX	TY	TZ	RX	RY	RZ
	position	0.00	0.00	0.00
	orientation	0.00	0.00	0.00
:bonedata
	begin
		id	1
		name	Head
		direction	-18.5	116.2	-38.8
		length	123.9
		axis	0.0	0.0	0.0	XYZ
		dof	rx	ry	rz
		limits	(-inf	inf)
			(-inf	inf)
			(-inf	inf)
	end
	begin
		id	2
		name	Neck
		direction	-1.6	89.5	-15.3
		length	90.8
		axis	0.0	0.0	0.0	XYZ
		dof	rx	ry	rz
		limits	(-inf	inf)
			(-inf	inf)
			(-inf	inf)
	end
	begin
		id	3
		name	LeftCollar
		direction	-5.0	276.0	-47.2
		length	280.1
		axis	0.0	0.0	0.0	XYZ
		dof	rx	ry	rz
		limits	(-inf	inf)
			(-inf	inf)
			(-inf	inf)
	end
	begin
		id	4
		name	Torso
		direction	4.0	199.4	8.5
		length	199.7
		axis	0.0	0.0	0.0	XYZ
		dof	rx	ry	rz
		limits	(-inf	inf)
			(-inf	inf)
			(-inf	inf)
	end
	begin
		id	5
		name	LeftShoulder
		direction	170.7	-14.1	-44.7
		length	177.0
		axis	0.0	0.0	0.0	XYZ
		dof	rx	ry	rz
		limits	(-inf	inf)
			(-inf	inf)
			(-inf	inf)
	end
	begin
		id	6
		name	RightShoulder
		direction	-174.2	6.3	52.4
		length	182.0
		axis	0.0	0.0	0.0	XYZ
		dof	rx	ry	rz
		limits	(-inf	inf)
			(-inf	inf)
			(-inf	inf)
	end
	begin
		id	7
		name	LeftElbow
		direction	55.3	-271.7	26.6
		length	278.5
		axis	0.0	0.0	0.0	XYZ
		dof	rx	ry	rz
		limits	(-inf	inf)
			(-inf	inf)
			(-inf	inf)
	end
	begin
		id	8
		name	RightElbow
		direction	-37.0	-268.0	66.2
		length	278.5
		axis	0.0	0.0	0.0	XYZ
		dof	rx	ry	rz
		limits	(-inf	inf)
			(-inf	inf)
			(-inf	inf)
	end
	begin
		id	9
		name	LeftWrist
		direction	69.1	-260.5	-128.7
		length	298.7
		axis	0.0	0.0	0.0	XYZ
		dof	rx	ry	rz
		limits	(-inf	inf)
			(-inf	inf)
			(-inf	inf)
	end
	begin
		id	10
		name	RightWrist
		direction	-79.9	-277.4	-76.9
		length	298.7
		axis	0.0	0.0	0.0	XYZ
		dof	rx	ry	rz
		limits	(-inf	inf)
			(-inf	inf)
			(-inf	inf)
	end
	begin
		id	11
		name	LeftHand
		direction	13.8	-52.1	-25.7
		length	59.7
		axis	0.0	0.0	0.0	XYZ
		dof	rx	ry	rz
		limits	(-inf	inf)
			(-inf	inf)
			(-inf	inf)
	end
	begin
		id	12
		name	RightHand
		direction	-16.0	-55.5	-15.4
		length	59.7
		axis	0.0	0.0	0.0	XYZ
		dof	rx	ry	rz
		limits	(-inf	inf)
			(-inf	inf)
			(-inf	inf)
	end
	begin
		id	13
		name	LeftHip
		direction	117.3	-70.1	12.8
		length	137.3
		axis	0.0	0.0	0.0	XYZ
		dof	rx	ry	rz
		limits	(-inf	inf)
			(-inf	inf)
			(-inf	inf)
	end
	begin
		id	14
		name	RightHip
		direction	-108.5	-76.7	41.0
		length	139.0
		axis	0.0	0.0	0.0	XYZ
		dof	rx	ry	rz
		limits	(-inf	inf)
			(-inf	inf)
			(-inf	inf)
	end
	begin
		id	15
		name	LeftKnee
		direction	-0.2	-428.3	-95.5
		length	438.9
		axis	0.0	0.0	0.0	XYZ
		dof	rx	ry	rz
		limits	(-inf	inf)
			(-inf	inf)
			(-inf	inf)
	end
	begin
		id	16
		name	RightKnee
		direction	16.9	-434.8	-56.9
		length	438.9
		axis	0.0	0.0	0.0	XYZ
		dof	rx	ry	rz
		limits	(-inf	inf)
			(-inf	inf)
			(-inf	inf)
	end
	begin
		id	17
		name	LeftAnkle
		direction	51.1	-389.3	75.6
		length	399.8
		axis	0.0	0.0	0.0	XYZ
		dof	rx	ry	rz
		limits	(-inf	inf)
			(-inf	inf)
			(-inf	inf)
	end
	begin
		id	18
		name	RightAnkle
		direction	-36.9	-388.8	85.6
		length	399.8
		axis	0.0	0.0	0.0	XYZ
		dof	rx	ry	rz
		limits	(-inf	inf)
			(-inf	inf)
			(-inf	inf)
	end
:hierarchy
	begin
		Neck	Head
		LeftCollar	Neck	LeftShoulder	RightShoulder
		Torso	LeftCollar
		root	Torso	LeftHip	RightHip
		LeftShoulder	LeftElbow
		RightShoulder	RightElbow
		LeftElbow	LeftWrist
		RightElbow	RightWrist
		LeftWrist	LeftHand
		RightWrist	RightHand
		LeftHip	LeftKnee
		RightHip	RightKnee
		LeftKnee	LeftAnkle
		RightKnee	RightAnkle
	end

:FULLY-SPECIFIED
:DEGREES
116
Head	-8.16	9.81	2.96
Neck	-8.16	9.81	2.96
LeftCollar	-8.16	9.81	2.96
Torso	-8.16	9.81	2.96
root	138.80	41.37	2760.86	-0.85	6.64	3.17
LeftShoulder	6.34	-7.51	2.32
RightShoulder	28.41	19.86	80.54
LeftElbow	7.14	28.24	6.54
RightElbow	27.17	-11.46	64.30
LeftWrist	7.20	29.11	6.66
RightWrist	27.19	-11.63	64.21
LeftHand	7.20	29.11	6.66
RightHand	27.19	-11.63	64.21
LeftHip	5.58	41.72	2.01
RightHip	-0.32	-35.62	1.78
LeftKnee	-5.87	41.72	2.01
RightKnee	-5.32	-35.62	1.78
LeftAnkle	-5.87	41.72	2.01
RightAnkle	-5.32	-35.62	1.78
117
Head	-8.16	9.81	2.96
Neck	-8.16	9.81	2.96
LeftCollar	-8.16	9.81	2.96
Torso	-8.16	9.81	2.96
root	138.80	41.37	2760.86	-0.85	6.64	3.17
LeftShoulder	6.34	-7.51	2.32
RightShoulder	28.41	19.86	80.54
LeftElbow	7.14	28.24	6.54
RightElbow	27.17	-11.46	64.30
LeftWrist	7.20	29.11	6.66
RightWrist	27.19	-11.63	64.21
LeftHand	7.20	29.11	6.66
RightHand	27.19	-11.63	64.21
LeftHip	5.58	41.72	2.01
RightHip	-0.32	-35.62	1.78
LeftKnee	-5.87	41.72	2.01
RightKnee	-5.32	-35.62	1.78
LeftAnkle	-5.87	41.72	2.01
RightAnkle	-5.32	-35.62	1.78
118
Head	-8.16	9.81	2.96
Neck	-8.16	9.81	2.96
LeftCollar	-8.16	9.81	2.96
Torso	-8.16	9.81	2.96
root	138.80	41.37	2760.86	-0.85	6.64	3.17
LeftShoulder	6.34	-7.51	2.32
RightShoulder	28.41	19.86	80.54
LeftElbow	7.14	28.24	6.54
RightElbow	27.17	-11.46	64.30
LeftWrist	7.20	29.11	6.66
RightWrist	27.19	-11.63	64.21
LeftHand	7.20	29.11	6.66
RightHand	27.19	-11.63	64.21
LeftHip	5.58	41.72	2.01
RightHip	-0.32	-35.62	1.78
LeftKnee	-5.87	41.72	2.01
RightKnee	-5.32	-35.62	1.78
LeftAnkle	-5.87	41.72	2.01
RightAnkle	-5.32	-35.62	1.78
119
Head	-8.18	10.76	3.14
Neck	-8.18	10.76	3.14
LeftCollar	-8.18	10.76	3.14
Torso	-8.18	10.76	3.14
root	140.14	42.04	2760.90	-0.36	6.30	2.88
LeftShoulder	15.62	-11.69	-9.46
RightShoulder	27.12	19.94	80.81
LeftElbow	18.05	31.67	3.50
RightElbow	26.21	-14.04	64.09
LeftWrist	18.40	33.36	4.16
RightWrist	26.26	-14.39	63.91
LeftHand	18.40	33.36	4.16
RightHand	26.26	-14.39	63.91
LeftHip	5.89	41.27	1.86
RightHip	0.09	-35.34	1.66
LeftKnee	-6.36	41.27	1.86
RightKnee	-4.91	-35.34	1.66
LeftAnkle	-6.36	41.27	1.86
RightAnkle	-4.91	-35.34	1.66
120
Head	-8.22	11.31	3.32
Neck	-8.22	11.31	3.32
LeftCollar	-8.22	11.31	3.32
Torso	-8.22	11.31	3.32
root	141.33	41.95	2760.99	-1.32	9.58	2.81
LeftShoulder	25.17	-13.51	-24.82
RightShoulder	26.91	20.32	80.42
LeftElbow	29.40	32.61	-1.66
RightElbow	25.82	-13.03	64.20
LeftWrist	30.14	34.56	-0.32
RightWrist	25.84	-13.15	64.14
LeftHand	30.14	34.56	-0.32
RightHand	25.84	-13.15	64.14
LeftHip	5.05	44.64	1.48
RightHip	0.20	-32.38	1.29
LeftKnee	-6.43	44.64	1.48
RightKnee	-4.80	-32.38	1.29
LeftAnkle	-6.43	44.64	1.48
RightAnkle	-4.80	-32.38	1.29
121
Head	-8.22	11.31	3.32
Neck	-8.22	11.31	3.32
LeftCollar	-8.22	11.31	3.32
Torso	-8.22	11.31	3.32
root	141.33	41.95	2760.99	-1.32	9.58	2.81
LeftShoulder	25.17	-13.51	-24.82
RightShoulder	26.91	20.32	80.42
LeftElbow	29.40	32.61	-1.66
RightElbow	25.82	-13.03	64.20
LeftWrist	30.14	34.56	-0.32
RightWrist	25.84	-13.15	64.14
LeftHand	30.14	34.56	-0.32
RightHand	25.84	-13.15	64.14
LeftHip	5.05	44.64	1.48
RightHip	0.20	-32.38	1.29
LeftKnee	-6.43	44.64	1.48
RightKnee	-4.80	-32.38	1.29
LeftAnkle	-6.43	44.64	1.48
RightAnkle	-4.80	-32.38	1.29
122
Head	-8.27	11.10	3.22
Neck	-8.27	11.10	3.22
LeftCollar	-8.27	11.10	3.22
Torso	-8.27	11.10	3.22
root	141.69	41.10	2761.16	-1.99	10.28	2.66
LeftShoulder	22.70	-12.16	-37.57
RightShoulder	26.45	20.14	80.21
LeftElbow	27.56	35.39	-15.72
RightElbow	25.44	-13.22	64.28
LeftWrist	28.34	37.37	-14.41
RightWrist	25.44	-13.26	64.26
LeftHand	28.34	37.37	-14.41
RightHand	25.44	-13.26	64.26
LeftHip	4.72	45.55	1.48
RightHip	0.32	-31.98	1.29
LeftKnee	-5.76	45.55	1.48
RightKnee	-4.68	-31.98	1.29
LeftAnkle	-5.76	45.55	1.48
RightAnkle	-4.68	-31.98	1.29
123
Head	-8.27	11.10	3.22
Neck	-8.27	11.10	3.22
LeftCollar	-8.27	11.10	3.22
Torso	-8.27	11.10	3.22
root	141.69	41.10	2761.16	-1.99	10.28	2.66
LeftShoulder	22.70	-12.16	-37.57
RightShoulder	26.45	20.14	80.21
LeftElbow	27.56	35.39	-15.72
RightElbow	25.44	-13.22	64.28
LeftWrist	28.34	37.37	-14.41
RightWrist	25.44	-13.26	64.26
LeftHand	28.34	37.37	-14.41
RightHand	25.44	-13.26	64.26
LeftHip	4.72	45.55	1.48
RightHip	0.32	-31.98	1.29
LeftKnee	-5.76	45.55	1.48
RightKnee	-4.68	-31.98	1.29
LeftAnkle	-5.76	45.55	1.48
RightAnkle	-4.68	-31.98	1.29
124
Head	-8.27	11.10	3.22
Neck	-8.27	11.10	3.22
LeftCollar	-8.27	11.10	3.22
Torso	-8.27	11.10	3.22
root	141.69	41.10	2761.16	-1.99	10.28	2.66
LeftShoulder	22.70	-12.16	-37.57
RightShoulder	26.45	20.14	80.21
LeftElbow	27.56	35.39	-15.72
RightElbow	25.44	-13.22	64.28
LeftWrist	28.34	37.37	-14.41
RightWrist	25.44	-13.26	64.26
LeftHand	28.34	37.37	-14.41
RightHand	25.44	-13.26	64.26
LeftHip	4.72	45.55	1.48
RightHip	0.32	-31.98	1.29
LeftKnee	-5.76	45.55	1.48
RightKnee	-4.68	-31.98	1.29
LeftAnkle	-5.76	45.55	1.48
RightAnkle	-4.68	-31.98	1.29
125
Head	-8.28	11.48	2.92
Neck	-8.28	11.48	2.92
LeftCollar	-8.28	11.48	2.92
Torso	-8.28	11.48	2.92
root	141.63	40.11	2761.30	-0.92	8.95	2.88
LeftShoulder	21.97	-11.42	-48.88
RightShoulder	26.79	19.94	80.26
LeftElbow	26.80	35.57	-27.93
RightElbow	25.80	-13.29	64.15
LeftWrist	27.53	37.49	-26.70
RightWrist	25.81	-13.31	64.14
LeftHand	27.53	37.49	-26.70
RightHand	25.81	-13.31	64.14
LeftHip	5.46	44.10	1.47
RightHip	1.52	-33.22	1.56
LeftKnee	-6.68	44.10	1.47
RightKnee	-6.80	-33.22	1.56
LeftAnkle	-6.68	44.10	1.47
RightAnkle	-6.80	-33.22	1.56
126
Head	-7.99	12.31	2.58
Neck	-7.99	12.31	2.58
LeftCollar	-7.99	12.31	2.58
Torso	-7.99	12.31	2.58
root	141.36	38.58	2761.44	-1.79	9.13	2.39
LeftShoulder	18.62	-10.30	-57.51
RightShoulder	27.70	19.41	80.52
LeftElbow	21.71	31.84	-42.20
RightElbow	26.78	-13.36	63.98
LeftWrist	22.07	33.28	-41.52
RightWrist	26.78	-13.34	63.99
LeftHand	22.07	33.28	-41.52
RightHand	26.78	-13.34	63.99
LeftHip	5.21	44.24	1.50
RightHip	1.66	-33.14	1.87
LeftKnee	-6.56	44.24	1.50
RightKnee	-6.66	-33.14	1.87
LeftAnkle	-6.56	44.24	1.50
RightAnkle	-6.66	-33.14	1.87
127
Head	-7.99	12.31	2.58
Neck	-7.99	12.31	2.58
LeftCollar	-7.99	12.31	2.58
Torso	-7.99	12.31	2.58
root	141.36	38.58	2761.44	-1.79	9.13	2.39
LeftShoulder	18.62	-10.30	-57.51
RightShoulder	27.70	19.41	80.52
LeftElbow	21.71	31.84	-42.20
RightElbow	26.78	-13.36	63.98
LeftWrist	22.07	33.28	-41.52
RightWrist	26.78	-13.34	63.99
LeftHand	22.07	33.28	-41.52
RightHand	26.78	-13.34	63.99
LeftHip	5.21	44.24	1.50
RightHip	1.66	-33.14	1.87
LeftKnee	-6.56	44.24	1.50
RightKnee	-6.66	-33.14	1.87
LeftAnkle	-6.56	44.24	1.50
RightAnkle	-6.66	-33.14	1.87
128
Head	-7.70	12.79	2.27
Neck	-7.70	12.79	2.27
LeftCollar	-7.70	12.79	2.27
Torso	-7.70	12.79	2.27
root	141.06	36.54	2761.49	-2.17	9.71	1.89
LeftShoulder	13.02	-9.63	-63.31
RightShoulder	28.64	18.84	80.66
LeftElbow	14.29	25.82	-54.77
RightElbow	27.74	-12.91	63.96
LeftWrist	14.40	26.69	-54.52
RightWrist	27.72	-12.79	64.02
LeftHand	14.40	26.69	-54.52
RightHand	27.72	-12.79	64.02
LeftHip	4.49	44.70	1.28
RightHip	1.64	-32.61	2.21
LeftKnee	-6.58	44.70	1.28
RightKnee	-6.48	-32.61	2.21
LeftAnkle	-6.58	44.70	1.28
RightAnkle	-6.48	-32.61	2.21
129
Head	-7.70	12.79	2.27
Neck	-7.70	12.79	2.27
LeftCollar	-7.70	12.79	2.27
Torso	-7.70	12.79	2.27
root	141.06	36.54	2761.49	-2.17	9.71	1.89
LeftShoulder	13.02	-9.63	-63.31
RightShoulder	28.64	18.84	80.66
LeftElbow	14.29	25.82	-54.77
RightElbow	27.74	-12.91	63.96
LeftWrist	14.40	26.69	-54.52
RightWrist	27.72	-12.79	64.02
LeftHand	14.40	26.69	-54.52
RightHand	27.72	-12.79	64.02
LeftHip	4.49	44.70	1.28
RightHip	1.64	-32.61	2.21
LeftKnee	-6.58	44.70	1.28
RightKnee	-6.48	-32.61	2.21
LeftAnkle	-6.58	44.70	1.28
RightAnkle	-6.48	-32.61	2.21
130
Head	-7.70	12.79	2.27
Neck	-7.70	12.79	2.27
LeftCollar	-7.70	12.79	2.27
Torso	-7.70	12.79	2.27
root	141.06	36.54	2761.49	-2.17	9.71	1.89
LeftShoulder	13.02	-9.63	-63.31
RightShoulder	28.64	18.84	80.66
LeftElbow	14.29	25.82	-54.77
RightElbow	27.74	-12.91	63.96
LeftWrist	14.40	26.69	-54.52
RightWrist	27.72	-12.79	64.02
LeftHand	14.40	26.69	-54.52
RightHand	27.72	-12.79	64.02
LeftHip	4.49	44.70	1.28
RightHip	1.64	-32.61	2.21
LeftKnee	-6.58	44.70	1.28
RightKnee	-6.48	-32.61	2.21
LeftAnkle	-6.58	44.70	1.28
RightAnkle	-6.48	-32.61	2.21
131
Head	-7.57	13.71	1.90
Neck	-7.57	13.71	1.90
LeftCollar	-7.57	13.71	1.90
Torso	-7.57	13.71	1.90
root	140.87	34.81	2761.52	-2.42	9.52	1.82
LeftShoulder	12.21	-10.01	-68.27
RightShoulder	30.06	18.30	81.13
LeftElbow	13.17	23.91	-60.70
RightElbow	29.22	-13.05	63.64
LeftWrist	13.30	25.16	-60.38
RightWrist	29.20	-12.92	63.71
LeftHand	13.30	25.16	-60.38
RightHand	29.20	-12.92	63.71
LeftHip	4.29	44.75	1.32
RightHip	1.00	-32.82	2.41
LeftKnee	-6.43	44.75	1.32
RightKnee	-5.92	-32.82	2.41
LeftAnkle	-6.43	44.75	1.32
RightAnkle	-5.92	-32.82	2.41
132
Head	-8.05	14.17	1.66
Neck	-8.05	14.17	1.66
LeftCollar	-8.05	14.17	1.66
Torso	-8.05	14.17	1.66
root	140.76	33.89	2765.24	-2.84	8.43	1.60
LeftShoulder	7.41	-9.84	-70.31
RightShoulder	29.76	18.18	81.54
LeftElbow	8.12	25.83	-65.48
RightElbow	29.03	-13.68	63.95
LeftWrist	8.24	27.52	-65.21
RightWrist	29.02	-13.59	64.00
LeftHand	8.24	27.52	-65.21
RightHand	29.02	-13.59	64.00
LeftHip	4.85	43.98	1.92
RightHip	0.50	-33.96	2.38
LeftKnee	-5.57	43.98	1.92
RightKnee	-5.02	-33.96	2.38
LeftAnkle	-5.57	43.98	1.92
RightAnkle	-5.02	-33.96	2.38
133
Head	-8.05	14.17	1.66
Neck	-8.05	14.17	1.66
LeftCollar	-8.05	14.17	1.66
Torso	-8.05	14.17	1.66
root	140.76	33.89	2765.24	-2.84	8.43	1.60
LeftShoulder	7.41	-9.84	-70.31
RightShoulder	29.76	18.18	81.54
LeftElbow	8.12	25.83	-65.48
RightElbow	29.03	-13.68	63.95
LeftWrist	8.24	27.52	-65.21
RightWrist	29.02	-13.59	64.00
LeftHand	8.24	27.52	-65.21
RightHand	29.02	-13.59	64.00
LeftHip	4.85	43.98	1.92
RightHip	0.50	-33.96	2.38
LeftKnee	-5.57	43.98	1.92
RightKnee	-5.02	-33.96	2.38
LeftAnkle	-5.57	43.98	1.92
RightAnkle	-5.02	-33.96	2.38
134
Head	-9.71	14.60	1.04
Neck	-9.71	14.60	1.04
LeftCollar	-9.71	14.60	1.04
Torso	-9.71	14.60	1.04
root	140.33	34.17	2775.59	-3.08	5.33	1.48
LeftShoulder	3.13	-10.53	-70.98
RightShoulder	26.87	18.38	82.05
LeftElbow	3.50	28.51	-68.74
RightElbow	26.49	-15.95	65.17
LeftWrist	3.57	30.55	-68.59
RightWrist	26.50	-15.97	65.16
LeftHand	3.57	30.55	-68.59
RightHand	26.50	-15.97	65.16
LeftHip	6.67	41.21	3.03
RightHip	1.21	-37.05	2.25
LeftKnee	-4.18	41.21	3.03
RightKnee	-5.38	-37.05	2.25
LeftAnkle	-4.18	41.21	3.03
RightAnkle	-5.38	-37.05	2.25
135
Head	-11.92	15.27	0.05
Neck	-11.92	15.27	0.05
LeftCollar	-11.92	15.27	0.05
Torso	-11.92	15.27	0.05
root	137.96	35.27	2789.88	-3.31	6.40	1.32
LeftShoulder	-2.10	-10.99	-69.79
RightShoulder	20.19	18.45	82.25
LeftElbow	-2.40	30.69	-71.42
RightElbow	20.39	-20.01	68.36
LeftWrist	-2.46	32.80	-71.52
RightWrist	20.41	-20.13	68.31
LeftHand	-2.46	32.80	-71.52
RightHand	20.41	-20.13	68.31
LeftHip	8.53	42.34	3.90
RightHip	3.57	-35.76	1.19
LeftKnee	-4.14	42.34	3.90
RightKnee	-5.42	-35.76	1.19
LeftAnkle	-4.14	42.34	3.90
RightAnkle	-5.42	-35.76	1.19
136
Head	-11.92	15.27	0.05
Neck	-11.92	15.27	0.05
LeftCollar	-11.92	15.27	0.05
Torso	-11.92	15.27	0.05
root	137.96	35.27	2789.88	-3.31	6.40	1.32
LeftShoulder	-2.10	-10.99	-69.79
RightShoulder	20.19	18.45	82.25
LeftElbow	-2.40	30.69	-71.42
RightElbow	20.39	-20.01	68.36
LeftWrist	-2.46	32.80	-71.52
RightWrist	20.41	-20.13	68.31
LeftHand	-2.46	32.80	-71.52
RightHand	20.41	-20.13	68.31
LeftHip	8.53	42.34	3.90
RightHip	3.57	-35.76	1.19
LeftKnee	-4.14	42.34	3.90
RightKnee	-5.42	-35.76	1.19
LeftAnkle	-4.14	42.34	3.90
RightAnkle	-5.42	-35.76	1.19
137
Head	-15.19	15.26	-1.04
Neck	-15.19	15.26	-1.04
LeftCollar	-15.19	15.26	-1.04
Torso	-15.19	15.26	-1.04
root	134.15	37.70	2807.09	-3.37	7.47	1.35
LeftShoulder	-10.49	-9.29	-67.21
RightShoulder	10.12	19.55	80.35
LeftElbow	-12.05	30.55	-75.11
RightElbow	10.35	-22.87	72.87
LeftWrist	-12.23	31.93	-75.46
RightWrist	10.35	-22.87	72.87
LeftHand	-12.23	31.93	-75.46
RightHand	10.35	-22.87	72.87
LeftHip	10.22	42.95	4.75
RightHip	3.99	-34.00	0.45
LeftKnee	-3.70	42.95	4.75
RightKnee	-2.54	-34.00	0.45
LeftAnkle	-3.70	42.95	4.75
RightAnkle	-2.54	-34.00	0.45
